# xmcd CD database file
#
# Track frame offsets:
#	150
#	22850
#	43842
#	66477
#
# Disc length: 1162 seconds
#
# Revision: 0
# Processed by: cddbd v1.5PL3 Copyright (c) Steve Scherf et al.
# Submitted via: CDex 1.51
#
DISCID=30048804
DTITLE=MAX - 銀河の誓い
DYEAR=1999
DGENRE=JPop
TTITLE0=銀河の誓い
TTITLE1=We'll be together
TTITLE2=銀河の誓い (original karaoke)
TTITLE3=We'll be together (original karaoke)
EXTD=YEAR: 1999
EXTT0=
EXTT1=
EXTT2=
EXTT3=
PLAYORDER=
